#!OML:ASF E:\emotionWalksFemale\Project 1\Capture day 1\Session 1\Female1.ASF
:FULLY-SPECIFIED
:DEGREES
1177
root 7.61491 15.3577 -10.8482 192.231 32.5686 -176.971
lowerback 17.1557 1.33824 -6.20361
upperback -1.51359 0.438643 -0.933177
thorax -11.4064 0.584488 2.37317
lowerneck -7.6428 7.96027 3.55686
upperneck 7.81147 10.5492 -2.35963
head 4.29814 5.21534 -0.742735
rclavicle 3.77691e-014 9.54166e-015
rhumerus -46.5138 6.57929 -83.0381
rradius 44.6954
rwrist 7.24874
rhand 0.165403 -52.1897
rfingers 7.12502
rthumb 25.7488 -80.4676
lclavicle 3.77691e-014 9.54166e-015
lhumerus -40.9092 8.70304 71.1179
lradius 44.4484
lwrist -6.87805
lhand -7.59898 -33.7039
lfingers 7.12502
lthumb 18.2947 -4.54421
rfemur -16.7639 0.450303 27.9496
rtibia 30.6768
rfoot -25.6323 -35.7157
rtoes 18.8387
lfemur -27.1947 6.62826 -25.9672
ltibia 51.552
lfoot -17.7311 -1.91896
ltoes -24.3816
1178
root 7.6392 15.359 -10.8842 192.602 33.0245 -176.849
lowerback 16.3538 1.68418 -6.19155
upperback -1.62753 0.959084 -0.840007
thorax -11.1191 0.822796 2.33995
lowerneck -7.71189 7.83698 3.50976
upperneck 8.16031 10.4109 -2.43218
head 4.4358 5.14252 -0.757704
rclavicle 1.61016e-014 2.38542e-015
rhumerus -46.0826 6.07627 -82.4135
rradius 44.3381
rwrist 7.37547
rhand -0.158449 -52.2968
rfingers 7.12502
rthumb 25.4386 -80.6192
lclavicle 1.61016e-014 2.38542e-015
lhumerus -40.738 8.79254 71.3381
lradius 44.3594
lwrist -6.91191
lhand -7.0884 -33.6221
lfingers 7.12502
lthumb 18.7858 -4.50924
rfemur -16.6285 1.27525 27.9246
rtibia 30.1475
rfoot -25.2558 -36.1554
rtoes 17.6761
lfemur -28.4188 8.04888 -25.9498
ltibia 53.221
lfoot -16.6968 -2.2206
ltoes -31.0604
1179
root 7.64748 15.3433 -10.9269 192.383 32.5817 -176.768
lowerback 16.2577 1.69237 -5.50694
upperback -1.55554 1.11703 -0.814516
thorax -10.9782 0.850924 1.94316
lowerneck -7.77273 7.50595 3.21535
upperneck 8.29519 10.0055 -2.45104
head 4.4651 4.93297 -0.738209
rclavicle 1.2921e-014 -1.11319e-014
rhumerus -45.6356 5.70168 -81.9278
rradius 44.0753
rwrist 7.30512
rhand -0.367873 -52.3867
rfingers 7.12502
rthumb 25.238 -80.7376
lclavicle 1.2921e-014 -1.11319e-014
lhumerus -40.5405 8.89381 71.4682
lradius 44.4219
lwrist -6.97302
lhand -6.24581 -33.3633
lfingers 7.12502
lthumb 19.596 -4.33092
rfemur -15.88 1.43732 28.0506
rtibia 29.6143
rfoot -24.114 -37.1238
rtoes 14.5191
lfemur -29.1955 8.73316 -25.742
ltibia 55.104
lfoot -16.1258 -2.65382
ltoes -38.7424
1180
root 7.65293 15.3303 -10.9783 192.228 32.0893 -176.535
lowerback 16.1814 1.68169 -4.66343
upperback -1.52808 1.28255 -0.69887
thorax -10.8943 0.87814 1.55288
lowerneck -7.86285 7.2954 3.03066
upperneck 8.73062 9.77223 -2.51574
head 4.62716 4.80952 -0.732444
rclavicle -3.598e-014 1.51076e-014
rhumerus -45.4026 5.55925 -81.3786
rradius 43.9841
rwrist 7.142
rhand -0.95027 -52.5283
rfingers 7.12502
rthumb 24.6799 -80.9567
lclavicle -3.598e-014 1.51076e-014
lhumerus -40.5941 8.89927 71.7087
lradius 44.5901
lwrist -7.04054
lhand -5.71975 -32.9566
lfingers 7.12502
lthumb 20.1017 -3.97656
rfemur -15.1202 1.15306 28.3488
rtibia 29.0853
rfoot -22.867 -37.8682
rtoes 11.0581
lfemur -30.0387 9.26248 -25.3381
ltibia 57.1202
lfoot -15.7241 -3.39461
ltoes -42.639
1181
root 7.67155 15.3265 -11.0218 192.068 31.464 -176.369
lowerback 16.2751 1.71613 -4.20583
upperback -1.61193 1.43028 -0.451583
thorax -11.0454 0.929495 1.52389
lowerneck -7.7898 7.1047 2.84756
upperneck 9.45836 9.59443 -2.73051
head 4.3728 4.69935 -0.693945
rclavicle -3.26007e-014 1.19271e-014
rhumerus -45.4059 5.37883 -80.6558
rradius 43.9769
rwrist 7.23597
rhand -2.24087 -52.8967
rfingers 7.12502
rthumb 23.4424 -81.4886
lclavicle -3.26007e-014 1.19271e-014
lhumerus -40.7877 8.71789 72.1129
lradius 44.6463
lwrist -7.07877
lhand -5.57712 -32.7918
lfingers 7.12502
lthumb 20.2388 -3.82624
rfemur -14.3337 1.05847 28.6234
rtibia 28.5067
rfoot -24.042 -38.1076
rtoes 13.9756
lfemur -31.015 9.61565 -24.8972
ltibia 59.1959
lfoot -14.4158 -4.61705
ltoes -41.8983
1182
root 7.71037 15.3286 -11.0515 191.908 30.8543 -176.477
lowerback 16.3203 1.81257 -4.40858
upperback -1.80518 1.53 -0.206037
thorax -11.3102 1.00216 1.87838
lowerneck -7.37009 6.87293 2.62579
upperneck 9.20057 9.3197 -2.66408
head 4.66925 4.57859 -0.75528
rclavicle 1.49089e-014 -3.57812e-014
rhumerus -45.4869 5.08405 -79.958
rradius 43.8976
rwrist 7.56382
rhand -2.5277 -53.5001
rfingers 7.12502
rthumb 23.1672 -82.1269
lclavicle 1.49089e-014 -3.57812e-014
lhumerus -41.0737 8.60023 72.4091
lradius 44.6617
lwrist -7.19505
lhand -5.881 -33.0511
lfingers 7.12502
lthumb 19.9467 -4.05477
rfemur -13.6527 1.51305 28.6639
rtibia 27.8959
rfoot -26.8095 -38.206
rtoes 20.5675
lfemur -32.1745 9.82783 -24.6658
ltibia 61.2437
lfoot -10.8002 -6.48388
ltoes -31.753
1183
root 7.72228 15.3255 -11.0953 191.879 30.3747 -176.16
lowerback 16.3855 1.81568 -3.81763
upperback -1.89386 1.66582 -0.00194944
thorax -11.4437 1.03757 1.72978
lowerneck -6.89796 6.74695 2.47139
upperneck 9.11591 9.18946 -2.73431
head 4.53356 4.51531 -0.780597
rclavicle -1.78906e-015 -1.90833e-014
rhumerus -45.3028 4.91836 -79.4072
rradius 43.6711
rwrist 7.70251
rhand -1.95989 -54.0957
rfingers 7.12502
rthumb 23.7119 -82.653
lclavicle -1.78906e-015 -1.90833e-014
lhumerus -41.3623 8.73958 72.5693
lradius 45.0245
lwrist -7.11505
lhand -6.11315 -33.0873
lfingers 7.12502
lthumb 19.7236 -4.06796
rfemur -12.8839 1.61349 29.0121
rtibia 27.2643
rfoot -28.7416 -38.0526
rtoes 24.6332
lfemur -33.2317 10.0693 -24.0993
ltibia 63.2805
lfoot -10.2052 -7.10915
ltoes -33.9639
1184
root 7.73537 15.3165 -11.143 191.887 29.994 -175.9
lowerback 16.2184 1.81444 -3.33219
upperback -1.86351 1.78728 0.174368
thorax -11.3079 1.06822 1.6208
lowerneck -7.24683 6.62749 2.74779
upperneck 9.84377 9.07442 -3.22946
head 4.40582 4.42798 -0.875044
rclavicle -4.85035e-014 7.55382e-015
rhumerus -44.8835 4.89777 -78.9386
rradius 43.3257
rwrist 7.63844
rhand -1.56606 -53.8737
rfingers 7.12502
rthumb 24.0895 -82.3815
lclavicle -4.85035e-014 7.55382e-015
lhumerus -41.5146 8.84656 72.7388
lradius 45.6356
lwrist -6.58811
lhand -5.76698 -32.7501
lfingers 7.12502
lthumb 20.0563 -3.76529
rfemur -12.2027 1.56881 29.298
rtibia 26.619
rfoot -29.3411 -38.2027
rtoes 25.969
lfemur -34.3157 10.301 -23.6169
ltibia 65.23
lfoot -10.1066 -7.57319
ltoes -37.9839
1185
root 7.74876 15.3142 -11.189 191.801 29.7534 -175.668
lowerback 16.2068 1.88794 -2.89667
upperback -1.82878 1.98742 0.301665
thorax -11.2613 1.13923 1.46234
lowerneck -7.13512 6.59266 2.75922
upperneck 9.83766 9.04503 -3.34374
head 4.39044 4.41076 -0.917155
rclavicle -1.39149e-014 -7.15625e-015
rhumerus -44.5405 4.76354 -78.4555
rradius 42.9936
rwrist 7.71229
rhand -1.1009 -53.5208
rfingers 7.12502
rthumb 24.5355 -81.9689
lclavicle -1.39149e-014 -7.15625e-015
lhumerus -41.6711 8.87719 72.8822
lradius 46.2197
lwrist -6.24942
lhand -5.70436 -32.7843
lfingers 7.12502
lthumb 20.1165 -3.80579
rfemur -11.4209 1.60426 29.5316
rtibia 25.9136
rfoot -29.334 -38.3874
rtoes 26.4828
lfemur -35.3722 10.5335 -23.1075
ltibia 67.0638
lfoot -9.89573 -8.21922
ltoes -38.7847
1186
root 7.76281 15.3138 -11.2288 191.649 29.4158 -175.321
lowerback 16.4676 1.95154 -2.42316
upperback -1.77998 2.18303 0.485913
thorax -11.3561 1.20955 1.33879
lowerneck -6.94911 6.45984 2.69546
upperneck 9.67012 8.87742 -3.41445
head 4.30356 4.32675 -0.949329
rclavicle -2.73329e-014 3.57812e-015
rhumerus -44.1469 4.57255 -77.9533
rradius 42.7067
rwrist 7.79436
rhand -0.806294 -53.6871
rfingers 7.12502
rthumb 24.8179 -82.0966
lclavicle -2.73329e-014 3.57812e-015
lhumerus -41.823 9.00302 73.0361
lradius 46.694
lwrist -6.17962
lhand -6.15232 -33.135
lfingers 7.12502
lthumb 19.6859 -4.11176
rfemur -10.5514 1.54892 29.8881
rtibia 25.2729
rfoot -29.7629 -38.323
rtoes 27.8494
lfemur -36.3577 10.6599 -22.4257
ltibia 68.7047
lfoot -9.30734 -8.97013
ltoes -36.2667
1187
root 7.77512 15.3093 -11.2716 191.614 29.0434 -174.981
lowerback 16.5644 1.97747 -1.97666
upperback -1.72164 2.33162 0.685065
thorax -11.343 1.25975 1.26309
lowerneck -6.89786 6.32274 2.46694
upperneck 9.16284 8.67896 -3.22748
head 4.5648 4.24303 -0.979002
rclavicle 1.80894e-014 -1.82882e-014
rhumerus -43.6193 4.43151 -77.4786
rradius 42.2562
rwrist 7.80066
rhand -0.40731 -53.3615
rfingers 7.12502
rthumb 25.2002 -81.7177
lclavicle 1.80894e-014 -1.82882e-014
lhumerus -41.9102 9.07452 73.2177
lradius 47.1296
lwrist -5.72472
lhand -6.36765 -33.2165
lfingers 7.12502
lthumb 19.4789 -4.17217
rfemur -9.8795 1.33253 30.2274
rtibia 24.7574
rfoot -30.0812 -38.3301
rtoes 28.6646
lfemur -37.3745 10.7235 -21.8021
ltibia 70.0742
lfoot -9.44615 -8.83508
ltoes -35.6101
1188
root 7.7853 15.3052 -11.3234 191.627 28.8096 -174.815
lowerback 16.4928 2.00977 -1.65962
upperback -1.71451 2.45585 0.811728
thorax -11.2902 1.30379 1.19162
lowerneck -6.86908 6.21281 2.36962
upperneck 9.10494 8.54718 -3.29919
head 4.53213 4.17259 -0.997037
rclavicle 3.75703e-014 -7.95139e-015
rhumerus -43.1526 4.36003 -77.0599
rradius 41.6752
rwrist 8.10367
rhand -0.270397 -52.7643
rfingers 7.12502
rthumb 25.3314 -81.102
lclavicle 3.75703e-014 -7.95139e-015
lhumerus -42.1988 9.12876 73.3248
lradius 47.786
lwrist -5.03971
lhand -6.27415 -33.1099
lfingers 7.12502
lthumb 19.5688 -4.07469
rfemur -9.35818 1.15802 30.3537
rtibia 24.2989
rfoot -29.8981 -38.472
rtoes 28.2616
lfemur -38.3343 10.8011 -21.4261
ltibia 71.0052
lfoot -9.59573 -8.39223
ltoes -33.7751
1189
root 7.79355 15.301 -11.3728 191.601 28.5511 -174.682
lowerback 16.6207 2.01836 -1.35186
upperback -1.76647 2.54056 0.90936
thorax -11.4169 1.32895 1.09729
lowerneck -6.89047 6.14454 2.44416
upperneck 9.24274 8.47066 -3.41658
head 4.59555 4.13249 -1.052
rclavicle -2.5345e-014 -7.15625e-015
rhumerus -42.6674 4.35667 -76.723
rradius 40.9742
rwrist 8.757
rhand -0.542829 -53.0178
rfingers 7.12502
rthumb 25.0703 -81.3922
lclavicle -2.5345e-014 -7.15625e-015
lhumerus -42.6911 9.26288 73.3454
lradius 48.5478
lwrist -4.58961
lhand -6.48058 -33.3209
lfingers 7.12502
lthumb 19.3703 -4.26565
rfemur -8.92396 0.929836 30.4164
rtibia 23.9396
rfoot -29.6701 -38.5371
rtoes 27.6733
lfemur -39.2423 10.7775 -21.0868
ltibia 71.625
lfoot -9.90357 -7.57919
ltoes -32.587
1190
root 7.81232 15.3158 -11.4613 191.017 28.8054 -174.977
lowerback 16.4269 2.18849 -1.40344
upperback -1.52734 2.75181 0.820341
thorax -11.0405 1.42847 0.983726
lowerneck -6.7787 6.02143 2.55347
upperneck 9.08819 8.2924 -3.48519
head 4.52051 4.04703 -1.11202
rclavicle -2.84262e-014 3.97569e-016
rhumerus -41.9354 4.15015 -76.3904
rradius 40.1515
rwrist 9.6224
rhand -0.328277 -54.154
rfingers 7.12502
rthumb 25.2759 -82.4996
lclavicle -2.84262e-014 3.97569e-016
lhumerus -43.1986 9.4242 73.3259
lradius 49.4773
lwrist -4.23787
lhand -7.3337 -33.9888
lfingers 7.12502
lthumb 18.5499 -4.85326
rfemur -7.86363 0.284458 29.8135
rtibia 23.6573
rfoot -29.9123 -37.611
rtoes 27.8397
lfemur -39.0968 11.0261 -21.183
ltibia 71.7672
lfoot -11.45 -6.27661
ltoes -34.3794
